#!OML:ASF F:\VICON\USERDATA\INSTALL\Justin_Nancy\Justin_Nancy.ASF
:FULLY-SPECIFIED
:DEGREES
102
root -0.67632 16.2472 1.91542 17.58 7.48811 -0.703315
lowerback 14.383 1.76955 1.78145
upperback 1.01746 2.69642 0.939581
thorax -6.95119 1.27063 -0.550899
lowerneck -19.8687 -7.5178 -10.1673
upperneck -0.165589 -8.41812 12.5475
head 4.09326 -3.52737 4.75983
rclavicle 5.82439e-014 3.57812e-015
rhumerus -40.7507 15.8254 -97.6638
rradius 105.002
rwrist -12.4142
rhand -17.6458 30.0044
rfingers 7.12502
rthumb 8.61212 0.200079
lclavicle 5.82439e-014 3.57812e-015
lhumerus -63.1901 -13.0416 92.7053
lradius 107.873
lwrist 21.0752
lhand -23.2987 21.3071
lfingers 7.12502
lthumb 3.15462 51.2635
rfemur 4.05231 4.78937 30.4954
rtibia 56.2964
rfoot 23.3981 -13.2616
rtoes 11.4662
lfemur -56.5458 6.92765 -23.6374
ltibia 62.2007
lfoot -14.4592 -17.1859
ltoes 9.1674
103
root -0.70539 16.2182 2.41559 19.1344 7.19662 -0.745287
lowerback 12.744 1.91415 1.22639
upperback 0.593631 2.76649 0.779182
thorax -6.50392 1.3252 -0.370506
lowerneck -19.6402 -7.3926 -10.1117
upperneck -0.730976 -8.25747 12.8762
head 3.88727 -3.44677 4.88349
rclavicle -9.93923e-015 -1.78906e-014
rhumerus -41.9483 14.6085 -97.7504
rradius 101.979
rwrist -13.3977
rhand -17.0142 30.3714
rfingers 7.12502
rthumb 9.22167 0.59308
lclavicle -9.93923e-015 -1.78906e-014
lhumerus -60.6617 -13.3337 93.4351
lradius 108.03
lwrist 21.1283
lhand -20.3489 11.9483
lfingers 7.12502
lthumb 6.00297 41.8433
rfemur -0.831736 4.42338 29.988
rtibia 62.1738
rfoot 22.7321 -13.0737
rtoes 9.14265
lfemur -56.476 7.165 -23.6656
ltibia 63.0732
lfoot -16.3368 -16.237
ltoes 12.4309
104
root -0.787365 16.1597 2.86543 22.548 2.8449 -3.64058
lowerback 9.34726 3.67648 0.562773
upperback -0.278316 5.00546 0.973124
thorax -5.56413 2.46003 -0.000977455
lowerneck -20.5245 -7.43419 -10.0355
upperneck -0.643758 -8.28367 13.2301
head 4.06762 -3.40629 4.96623
rclavicle 2.78299e-015 1.15295e-014
rhumerus -42.7823 13.4861 -97.8325
rradius 98.7077
rwrist -13.1105
rhand -18.1598 31.0954
rfingers 7.12502
rthumb 8.11612 1.27127
lclavicle 2.78299e-015 1.15295e-014
lhumerus -57.7141 -13.7058 94.1102
lradius 108.546
lwrist 21.7757
lhand -16.6596 7.05266
lfingers 7.12502
lthumb 9.56382 36.8156
rfemur -8.67212 9.18059 30.818
rtibia 68.5151
rfoot 22.6966 -12.3424
rtoes 22.7028
lfemur -59.2903 11.6415 -22.329
ltibia 64.0223
lfoot -18.5147 -13.9453
ltoes 10.7503
105
root -0.723438 16.168 3.39994 19.2149 7.27518 0.332736
lowerback 12.9642 1.64512 -1.01876e-005
upperback 0.920602 2.19185 0.197971
thorax -6.3088 1.07337 -0.189194
lowerneck -21.5078 -7.49875 -10.0888
upperneck -0.340736 -8.33258 13.6813
head 4.34297 -3.36241 5.09711
rclavicle -6.02318e-014 -7.95139e-016
rhumerus -43.4066 12.5459 -97.8305
rradius 95.1485
rwrist -11.9705
rhand -19.8022 32.1314
rfingers 7.12502
rthumb 6.53077 2.25211
lclavicle -6.02318e-014 -7.95139e-016
lhumerus -54.7092 -13.8692 94.8387
lradius 109.147
lwrist 21.5836
lhand -15.1806 6.50036
lfingers 7.12502
lthumb 10.9905 36.1927
rfemur -7.34484 2.20725 27.9999
rtibia 73.186
rfoot 19.5289 -11.1205
rtoes 10.5557
lfemur -52.0783 5.90286 -23.9669
ltibia 63.1972
lfoot -21.2069 -11.0938
ltoes 7.80107
106
root -0.734108 16.1418 3.89166 18.443 8.13329 2.02676
lowerback 14.2275 1.09439 -1.40555
upperback 1.14918 1.21447 -0.188964
thorax -6.79034 0.630674 0.354248
lowerneck -21.8144 -7.42016 -10.0124
upperneck -0.255375 -8.24974 13.9347
head 4.41915 -3.29363 5.17232
rclavicle 2.28602e-014 3.97569e-016
rhumerus -44.5555 11.807 -97.7726
rradius 92.1486
rwrist -10.8858
rhand -21.1474 32.754
rfingers 7.12502
rthumb 5.23205 2.83862
lclavicle 2.28602e-014 3.97569e-016
lhumerus -52.019 -13.8482 95.6074
lradius 109.777
lwrist 21.3306
lhand -16.6338 7.89919
lfingers 7.12502
lthumb 9.58869 37.661
rfemur -9.55742 -0.231675 25.9958
rtibia 78.2732
rfoot 17.2483 -10.2432
rtoes 10.4774
lfemur -48.0827 3.90707 -24.7224
ltibia 62.4164
lfoot -23.5603 -8.94348
ltoes 4.47684
107
root -0.755871 16.1108 4.3698 18.7015 8.23317 3.69503
lowerback 14.693 0.825591 -3.25334
upperback 0.976128 0.513403 -0.624434
thorax -7.23534 0.345521 1.07128
lowerneck -22.0894 -7.3753 -10.2015
upperneck -0.0343624 -8.18886 14.5092
head 4.56708 -3.21559 5.39249
rclavicle 2.61402e-014 -2.38542e-015
rhumerus -46.3716 10.9952 -97.6982
rradius 90.0798
rwrist -9.75002
rhand -22.008 32.171
rfingers 7.12502
rthumb 4.40104 2.23668
lclavicle 2.61402e-014 -2.38542e-015
lhumerus -49.1145 -13.9085 96.1668
lradius 110.574
lwrist 22.6654
lhand -18.6482 8.76812
lfingers 7.12502
lthumb 7.64471 38.6099
rfemur -13.2188 -2.01391 23.5894
rtibia 83.1363
rfoot 14.9607 -9.65587
rtoes 10.5346
lfemur -45.1452 2.32493 -25.7716
ltibia 61.2241
lfoot -25.2428 -7.31436
ltoes 2.88129
108
root -0.772074 16.0785 4.84407 19.3549 7.82051 5.1755
lowerback 14.2859 0.786745 -5.06973
upperback 1.03818 0.160259 -1.05663
thorax -6.93238 0.218574 1.71229
lowerneck -22.5604 -7.45668 -10.3969
upperneck -0.147587 -8.24686 15.1277
head 4.65826 -3.19089 5.6142
rclavicle 1.47101e-014 -4.77083e-015
rhumerus -48.0459 9.85117 -97.2267
rradius 89.4373
rwrist -7.56361
rhand -22.4683 34.035
rfingers 7.12502
rthumb 3.95658 4.09196
lclavicle 1.47101e-014 -4.77083e-015
lhumerus -45.3798 -14.4389 96.6535
lradius 111.486
lwrist 24.2359
lhand -19.4346 8.98682
lfingers 7.12502
lthumb 6.88563 38.8548
rfemur -17.6589 -3.33777 21.1402
rtibia 87.9438
rfoot 12.8557 -8.9092
rtoes 5.74031
lfemur -42.9211 1.1519 -26.8855
ltibia 60.1728
lfoot -26.7398 -5.31878
ltoes 1.6893
109
root -0.773679 16.0386 5.31824 19.8519 7.35422 6.04155
lowerback 13.4483 0.764246 -6.15051
upperback 1.42338 0.0227989 -1.35328
thorax -6.04591 0.149766 2.03775
lowerneck -23.1968 -7.56513 -10.4115
upperneck -0.481796 -8.32598 15.486
head 4.68302 -3.18869 5.71884
rclavicle -1.58034e-014 3.18055e-015
rhumerus -49.7664 8.64061 -96.6201
rradius 90.1083
rwrist -6.01744
rhand -21.7626 33.1771
rfingers 7.12502
rthumb 4.63797 3.24784
lclavicle -1.58034e-014 3.18055e-015
lhumerus -41.1438 -15.3961 97.0427
lradius 112.531
lwrist 25.4237
lhand -20.2633 9.83245
lfingers 7.12502
lthumb 6.08561 39.725
rfemur -21.9573 -4.37426 19.3416
rtibia 92.1502
rfoot 12.2429 -7.22989
rtoes 16.2272
lfemur -40.7878 0.363657 -27.5137
ltibia 59.06
lfoot -28.1207 -3.19895
ltoes -1.92929
110
root -0.769358 16.0019 5.79926 20.0349 7.45096 6.52863
lowerback 13.472 0.557106 -6.60625
upperback 1.44891 -0.319215 -1.37848
thorax -6.00187 -0.007527 2.33033
lowerneck -23.8485 -7.55216 -10.3201
upperneck -0.308296 -8.28122 15.3282
head 4.81042 -3.14448 5.65189
rclavicle -1.8487e-014 -3.10104e-014
rhumerus -52.6634 7.71721 -95.9944
rradius 92.184
rwrist -4.97618
rhand -20.7412 34.9275
rfingers 7.12502
rthumb 5.62424 5.02209
lclavicle -1.8487e-014 -3.10104e-014
lhumerus -37.5101 -16.1848 97.6213
lradius 113.854
lwrist 26.8256
lhand -21.1201 9.95942
lfingers 7.12502
lthumb 5.25841 39.8742
rfemur -25.7342 -5.56974 18.2131
rtibia 95.6329
rfoot 10.0257 -6.29324
rtoes 8.56206
lfemur -38.2508 -0.639251 -27.5803
ltibia 57.9368
lfoot -29.3058 -1.74472
ltoes -4.45014
